<svg xmlns="http://www.w3.org/2000/svg" xmlns:xlink="http://www.w3.org/1999/xlink" width="500" zoomAndPan="magnify" viewBox="0 0 375 374.999991" height="500" preserveAspectRatio="xMidYMid meet" version="1.0"><defs><clipPath id="2507c6f789"><path d="M 254 106 L 365.542969 106 L 365.542969 346 L 254 346 Z M 254 106 " clip-rule="nonzero"/></clipPath><clipPath id="ced9af19f4"><path d="M 9.292969 106 L 310 106 L 310 355.542969 L 9.292969 355.542969 Z M 9.292969 106 " clip-rule="nonzero"/></clipPath><clipPath id="bad5711e56"><path d="M 129 19.542969 L 246 19.542969 L 246 136 L 129 136 Z M 129 19.542969 " clip-rule="nonzero"/></clipPath></defs><g clip-path="url(#2507c6f789)"><path fill="#481b6b" d="M 309.746094 345.527344 L 365.542969 328.609375 L 318.914062 131.863281 L 293.898438 106.824219 L 254.898438 268.214844 L 309.746094 345.527344 " fill-opacity="1" fill-rule="nonzero"/></g><g clip-path="url(#ced9af19f4)"><path fill="#5e2590" d="M 141.351562 237.375 C 110.089844 259.105469 68.542969 274.160156 27.167969 283.082031 L 19.722656 307.675781 C 26.824219 306.214844 33.988281 304.570312 41.1875 302.746094 C 107.125 286.03125 162.722656 257.4375 197.011719 225.878906 L 175.28125 203.613281 C 221.910156 198.871094 267.347656 177.832031 267.347656 177.832031 C 267.347656 177.832031 256.472656 230.277344 235.335938 274.808594 L 221.242188 250.703125 C 181.902344 284.792969 120.839844 315.386719 49.003906 333.597656 C 35.609375 336.996094 22.34375 339.832031 9.292969 342.128906 C 9.292969 342.128906 119.535156 351.628906 221.667969 299.011719 C 197.863281 321.800781 165.660156 340.839844 131.832031 355.441406 L 309.746094 345.527344 L 293.898438 106.824219 L 238.058594 106.824219 L 238.058594 135.050781 L 227.203125 135.050781 L 227.203125 106.824219 L 132.582031 106.824219 L 132.582031 135.050781 L 121.722656 135.050781 L 121.722656 106.824219 L 80.519531 106.824219 L 33.691406 261.53125 C 72.761719 256.816406 109.210938 248.4375 141.351562 237.375 " fill-opacity="1" fill-rule="nonzero"/></g><g clip-path="url(#bad5711e56)"><path fill="#481b6b" d="M 139.898438 135.050781 L 139.898438 77.796875 C 139.898438 51.652344 161.078125 30.453125 187.207031 30.453125 C 213.335938 30.453125 234.519531 51.652344 234.519531 77.796875 L 234.519531 135.050781 L 245.378906 135.050781 L 245.378906 77.796875 C 245.378906 45.699219 219.285156 19.585938 187.207031 19.585938 C 155.132812 19.585938 129.039062 45.699219 129.039062 77.796875 L 129.039062 135.050781 L 139.898438 135.050781 " fill-opacity="1" fill-rule="nonzero"/></g></svg>
