<svg xmlns="http://www.w3.org/2000/svg" xmlns:xlink="http://www.w3.org/1999/xlink" width="500" zoomAndPan="magnify" viewBox="0 0 375 374.999991" height="500" preserveAspectRatio="xMidYMid meet" version="1.0"><defs><g/><clipPath id="8e61b014bb"><path d="M 209 120 L 245.921875 120 L 245.921875 200 L 209 200 Z M 209 120 " clip-rule="nonzero"/></clipPath><clipPath id="43fffc038b"><path d="M 128.921875 120 L 228 120 L 228 202.445312 L 128.921875 202.445312 Z M 128.921875 120 " clip-rule="nonzero"/></clipPath><clipPath id="869e4e6347"><path d="M 168 92.195312 L 207 92.195312 L 207 131 L 168 131 Z M 168 92.195312 " clip-rule="nonzero"/></clipPath><clipPath id="f24a000107"><path d="M 246.082031 92.195312 L 262.574219 92.195312 L 262.574219 107.945312 L 246.082031 107.945312 Z M 246.082031 92.195312 " clip-rule="nonzero"/></clipPath><clipPath id="4270855375"><path d="M 269.488281 217.265625 L 287.488281 217.265625 L 287.488281 235.265625 L 269.488281 235.265625 Z M 269.488281 217.265625 " clip-rule="nonzero"/></clipPath></defs><g clip-path="url(#8e61b014bb)"><path fill="#481b6b" d="M 227.59375 199.160156 L 245.921875 193.609375 L 230.605469 129.054688 L 222.390625 120.835938 L 209.582031 173.792969 L 227.59375 199.160156 " fill-opacity="1" fill-rule="nonzero"/></g><g clip-path="url(#43fffc038b)"><path fill="#5e2590" d="M 172.292969 163.675781 C 162.023438 170.804688 148.378906 175.746094 134.789062 178.671875 L 132.347656 186.742188 C 134.679688 186.261719 137.03125 185.722656 139.394531 185.125 C 161.050781 179.640625 179.308594 170.257812 190.570312 159.902344 L 183.433594 152.597656 C 198.75 151.039062 213.671875 144.136719 213.671875 144.136719 C 213.671875 144.136719 210.101562 161.34375 203.15625 175.957031 L 198.527344 168.046875 C 185.609375 179.234375 165.554688 189.273438 141.960938 195.246094 C 137.5625 196.363281 133.207031 197.292969 128.921875 198.046875 C 128.921875 198.046875 165.125 201.164062 198.667969 183.898438 C 190.851562 191.375 180.277344 197.625 169.164062 202.414062 L 227.59375 199.160156 L 222.390625 120.835938 L 204.050781 120.835938 L 204.050781 130.097656 L 200.488281 130.097656 L 200.488281 120.835938 L 169.410156 120.835938 L 169.410156 130.097656 L 165.84375 130.097656 L 165.84375 120.835938 L 152.3125 120.835938 L 136.933594 171.601562 C 149.765625 170.054688 161.734375 167.304688 172.292969 163.675781 " fill-opacity="1" fill-rule="nonzero"/></g><g clip-path="url(#869e4e6347)"><path fill="#481b6b" d="M 171.8125 130.097656 L 171.8125 111.3125 C 171.8125 102.734375 178.769531 95.777344 187.351562 95.777344 C 195.933594 95.777344 202.890625 102.734375 202.890625 111.3125 L 202.890625 130.097656 L 206.457031 130.097656 L 206.457031 111.3125 C 206.457031 100.78125 197.886719 92.210938 187.351562 92.210938 C 176.816406 92.210938 168.246094 100.78125 168.246094 111.3125 L 168.246094 130.097656 L 171.8125 130.097656 " fill-opacity="1" fill-rule="nonzero"/></g><g clip-path="url(#f24a000107)"><path fill="#000000" d="M 253.128906 99.714844 L 254.011719 99.714844 C 255.039062 99.714844 255.871094 99.378906 255.871094 98.5625 C 255.871094 97.847656 255.332031 97.367188 254.15625 97.367188 C 253.667969 97.367188 253.324219 97.414062 253.128906 97.464844 Z M 253.082031 104.117188 L 251.222656 104.117188 L 251.222656 96.265625 C 251.957031 96.171875 252.984375 96.027344 254.304688 96.027344 C 255.820312 96.027344 256.507812 96.265625 257.046875 96.648438 C 257.535156 96.984375 257.878906 97.558594 257.878906 98.324219 C 257.878906 99.28125 257.144531 99.90625 256.214844 100.191406 L 256.214844 100.289062 C 256.996094 100.527344 257.386719 101.148438 257.632812 102.203125 C 257.878906 103.398438 258.074219 103.832031 258.21875 104.117188 L 256.261719 104.117188 C 256.015625 103.832031 255.871094 103.160156 255.625 102.203125 C 255.480469 101.390625 254.988281 101.003906 253.960938 101.003906 L 253.082031 101.003906 Z M 248.140625 100.046875 C 248.140625 103.542969 250.832031 106.320312 254.402344 106.320312 C 257.878906 106.367188 260.519531 103.542969 260.519531 100.097656 C 260.519531 96.601562 257.878906 93.777344 254.304688 93.777344 C 250.832031 93.777344 248.140625 96.601562 248.140625 100.046875 Z M 262.574219 100.046875 C 262.574219 104.453125 258.953125 107.945312 254.355469 107.945312 C 249.753906 107.945312 246.082031 104.453125 246.082031 100.046875 C 246.082031 95.644531 249.753906 92.195312 254.402344 92.195312 C 258.953125 92.195312 262.574219 95.644531 262.574219 100.046875 " fill-opacity="1" fill-rule="nonzero"/></g><g clip-path="url(#4270855375)"><path fill="#707070" d="M 278.65625 217.265625 C 277.765625 224.820312 277.039062 225.542969 269.488281 226.4375 C 269.503906 226.4375 269.519531 226.441406 269.535156 226.441406 C 277.042969 227.332031 277.765625 228.070312 278.65625 235.605469 C 279.550781 228.054688 280.277344 227.332031 287.828125 226.4375 C 280.277344 225.542969 279.550781 224.820312 278.65625 217.265625 Z M 278.65625 217.265625 " fill-opacity="1" fill-rule="nonzero"/></g><g fill="#000000" fill-opacity="1"><g transform="translate(104.166287, 258.838034)"><g><path d="M 13.625 0 L 2.84375 0 L 2.84375 -27.484375 L 13.1875 -27.484375 C 14.75 -27.484375 16.078125 -27.3125 17.171875 -26.96875 C 18.265625 -26.625 19.144531 -26.125 19.8125 -25.46875 C 20.4375 -24.875 20.898438 -24.160156 21.203125 -23.328125 C 21.503906 -22.503906 21.65625 -21.597656 21.65625 -20.609375 C 21.65625 -18.972656 21.238281 -17.566406 20.40625 -16.390625 C 19.582031 -15.210938 18.4375 -14.550781 16.96875 -14.40625 C 18.914062 -14.269531 20.410156 -13.601562 21.453125 -12.40625 C 22.503906 -11.21875 23.03125 -9.664062 23.03125 -7.75 C 23.03125 -6.519531 22.84375 -5.472656 22.46875 -4.609375 C 22.09375 -3.742188 21.601562 -3.015625 21 -2.421875 C 20.351562 -1.796875 19.597656 -1.300781 18.734375 -0.9375 C 17.867188 -0.570312 16.988281 -0.320312 16.09375 -0.1875 C 15.207031 -0.0625 14.382812 0 13.625 0 Z M 6.15625 -24.5 L 6.15625 -15.5625 L 13.1875 -15.5625 C 14.820312 -15.5625 16.082031 -15.957031 16.96875 -16.75 C 17.851562 -17.539062 18.296875 -18.644531 18.296875 -20.0625 C 18.296875 -20.757812 18.191406 -21.351562 17.984375 -21.84375 C 17.785156 -22.34375 17.507812 -22.757812 17.15625 -23.09375 C 16.625 -23.601562 15.953125 -23.960938 15.140625 -24.171875 C 14.335938 -24.390625 13.445312 -24.5 12.46875 -24.5 Z M 6.15625 -12.609375 L 6.15625 -2.984375 L 13.265625 -2.984375 C 13.617188 -2.984375 14.101562 -3 14.71875 -3.03125 C 15.332031 -3.070312 15.96875 -3.195312 16.625 -3.40625 C 17.289062 -3.613281 17.875 -3.957031 18.375 -4.4375 C 18.78125 -4.789062 19.101562 -5.253906 19.34375 -5.828125 C 19.582031 -6.410156 19.703125 -7.125 19.703125 -7.96875 C 19.703125 -9.113281 19.476562 -10.003906 19.03125 -10.640625 C 18.59375 -11.285156 18.050781 -11.742188 17.40625 -12.015625 C 16.757812 -12.296875 16.125 -12.460938 15.5 -12.515625 C 14.875 -12.578125 14.367188 -12.609375 13.984375 -12.609375 Z M 6.15625 -12.609375 "/></g></g></g><g fill="#000000" fill-opacity="1"><g transform="translate(133.057899, 258.838034)"><g><path d="M 3.859375 0 L 0.5 0 L 10.625 -27.484375 L 14.375 -27.484375 L 24.5 0 L 21.15625 0 L 18.734375 -6.734375 L 6.265625 -6.734375 Z M 12.5 -24.109375 L 7.390625 -9.6875 L 17.625 -9.6875 Z M 12.5 -24.109375 "/></g></g></g><g fill="#000000" fill-opacity="1"><g transform="translate(162.093604, 258.838034)"><g><path d="M 3.859375 0 L 0.5 0 L 10.625 -27.484375 L 14.375 -27.484375 L 24.5 0 L 21.15625 0 L 18.734375 -6.734375 L 6.265625 -6.734375 Z M 12.5 -24.109375 L 7.390625 -9.6875 L 17.625 -9.6875 Z M 12.5 -24.109375 "/></g></g></g><g fill="#000000" fill-opacity="1"><g transform="translate(191.129306, 258.838034)"><g><path d="M 21.65625 0 L 1.046875 0 L 1.046875 -2.421875 L 17.578125 -24.5 L 1.90625 -24.5 L 1.90625 -27.484375 L 21.6875 -27.484375 L 21.6875 -25 L 5.296875 -2.984375 L 21.65625 -2.984375 Z M 21.65625 0 "/></g></g></g><g fill="#000000" fill-opacity="1"><g transform="translate(218.003602, 258.838034)"><g><path d="M 3.859375 0 L 0.5 0 L 10.625 -27.484375 L 14.375 -27.484375 L 24.5 0 L 21.15625 0 L 18.734375 -6.734375 L 6.265625 -6.734375 Z M 12.5 -24.109375 L 7.390625 -9.6875 L 17.625 -9.6875 Z M 12.5 -24.109375 "/></g></g></g><g fill="#000000" fill-opacity="1"><g transform="translate(247.039309, 258.838034)"><g><path d="M 16.859375 -12.21875 L 22.15625 0 L 18.515625 0 L 13.65625 -11.609375 L 6.15625 -11.609375 L 6.15625 0 L 2.84375 0 L 2.84375 -27.484375 L 13.078125 -27.484375 C 15.722656 -27.484375 17.835938 -26.832031 19.421875 -25.53125 C 21.003906 -24.238281 21.796875 -22.273438 21.796875 -19.640625 C 21.796875 -17.785156 21.363281 -16.222656 20.5 -14.953125 C 19.632812 -13.679688 18.421875 -12.769531 16.859375 -12.21875 Z M 6.15625 -14.5625 L 12.640625 -14.5625 C 14.546875 -14.5625 16 -14.984375 17 -15.828125 C 18.007812 -16.679688 18.515625 -17.914062 18.515625 -19.53125 C 18.515625 -21.113281 18 -22.335938 16.96875 -23.203125 C 15.9375 -24.066406 14.492188 -24.5 12.640625 -24.5 L 6.15625 -24.5 Z M 6.15625 -14.5625 "/></g></g></g><g fill="#5e2590" fill-opacity="1"><g transform="translate(81.865334, 300.855247)"><g><path d="M 4.296875 0.203125 C 3.554688 0.203125 2.882812 0.144531 2.28125 0.03125 C 1.675781 -0.0703125 1.226562 -0.175781 0.9375 -0.28125 L 0.734375 -1.75 C 0.953125 -1.65625 1.25 -1.5625 1.625 -1.46875 C 2 -1.375 2.40625 -1.289062 2.84375 -1.21875 C 3.289062 -1.15625 3.742188 -1.125 4.203125 -1.125 C 5.046875 -1.125 5.648438 -1.265625 6.015625 -1.546875 C 6.378906 -1.835938 6.5625 -2.226562 6.5625 -2.71875 C 6.5625 -3.164062 6.421875 -3.503906 6.140625 -3.734375 C 5.859375 -3.972656 5.410156 -4.171875 4.796875 -4.328125 L 3 -4.796875 C 2.226562 -4.992188 1.640625 -5.3125 1.234375 -5.75 C 0.828125 -6.1875 0.625 -6.800781 0.625 -7.59375 C 0.625 -8.4375 0.921875 -9.125 1.515625 -9.65625 C 2.117188 -10.1875 3.046875 -10.453125 4.296875 -10.453125 C 4.992188 -10.453125 5.628906 -10.398438 6.203125 -10.296875 C 6.773438 -10.191406 7.191406 -10.097656 7.453125 -10.015625 L 7.53125 -8.625 C 7.226562 -8.726562 6.789062 -8.835938 6.21875 -8.953125 C 5.644531 -9.066406 5.039062 -9.125 4.40625 -9.125 C 3.582031 -9.125 3.003906 -8.984375 2.671875 -8.703125 C 2.335938 -8.429688 2.171875 -8.078125 2.171875 -7.640625 C 2.171875 -7.191406 2.296875 -6.851562 2.546875 -6.625 C 2.804688 -6.394531 3.238281 -6.203125 3.84375 -6.046875 L 5.609375 -5.59375 C 6.410156 -5.382812 7.019531 -5.066406 7.4375 -4.640625 C 7.863281 -4.222656 8.078125 -3.59375 8.078125 -2.75 C 8.078125 -1.875 7.773438 -1.160156 7.171875 -0.609375 C 6.566406 -0.0664062 5.609375 0.203125 4.296875 0.203125 Z M 4.296875 0.203125 "/></g></g></g><g fill="#5e2590" fill-opacity="1"><g transform="translate(92.152876, 300.855247)"><g><path d="M 7.78125 0 L 6.90625 -2.40625 L 2.546875 -2.40625 L 1.6875 0 L 0.125 0 L 4.015625 -10.25 L 5.5 -10.25 L 9.390625 0 Z M 3.015625 -3.703125 L 6.4375 -3.703125 L 4.734375 -8.46875 Z M 3.015625 -3.703125 "/></g></g></g><g fill="#5e2590" fill-opacity="1"><g transform="translate(103.37693, 300.855247)"><g><path d="M 7.3125 -10.25 L 8.921875 -10.25 L 5.265625 0 L 3.828125 0 L 0.171875 -10.25 L 1.8125 -10.25 L 4.5625 -2.140625 Z M 7.3125 -10.25 "/></g></g></g><g fill="#5e2590" fill-opacity="1"><g transform="translate(114.176623, 300.855247)"><g><path d="M 1.3125 0 L 1.3125 -10.25 L 7.9375 -10.25 L 8.015625 -8.90625 L 2.828125 -8.90625 L 2.828125 -5.84375 L 7.46875 -5.84375 L 7.46875 -4.5 L 2.828125 -4.5 L 2.828125 -1.34375 L 8.140625 -1.34375 L 7.921875 0 Z M 1.3125 0 "/></g></g></g><g fill="#5e2590" fill-opacity="1"><g transform="translate(124.654394, 300.855247)"><g/></g></g><g fill="#5e2590" fill-opacity="1"><g transform="translate(129.761853, 300.855247)"><g><path d="M 1.3125 0 L 1.3125 -10.25 L 5.234375 -10.25 C 6.367188 -10.25 7.210938 -10.019531 7.765625 -9.5625 C 8.316406 -9.101562 8.59375 -8.414062 8.59375 -7.5 C 8.59375 -6.96875 8.488281 -6.507812 8.28125 -6.125 C 8.082031 -5.75 7.757812 -5.457031 7.3125 -5.25 C 7.84375 -5.0625 8.226562 -4.757812 8.46875 -4.34375 C 8.71875 -3.9375 8.847656 -3.441406 8.859375 -2.859375 C 8.878906 -0.953125 7.726562 0 5.40625 0 Z M 2.828125 -5.796875 L 5.28125 -5.796875 C 5.894531 -5.796875 6.347656 -5.925781 6.640625 -6.1875 C 6.929688 -6.445312 7.078125 -6.835938 7.078125 -7.359375 C 7.078125 -7.921875 6.921875 -8.328125 6.609375 -8.578125 C 6.304688 -8.828125 5.847656 -8.953125 5.234375 -8.953125 L 2.828125 -8.953125 Z M 2.828125 -1.296875 L 5.40625 -1.296875 C 6.0625 -1.296875 6.546875 -1.425781 6.859375 -1.6875 C 7.179688 -1.945312 7.34375 -2.363281 7.34375 -2.9375 C 7.332031 -4 6.6875 -4.53125 5.40625 -4.53125 L 2.828125 -4.53125 Z M 2.828125 -1.296875 "/></g></g></g><g fill="#5e2590" fill-opacity="1"><g transform="translate(141.088337, 300.855247)"><g><path d="M 1.3125 0 L 1.3125 -10.25 L 2.828125 -10.25 L 2.828125 0 Z M 1.3125 0 "/></g></g></g><g fill="#5e2590" fill-opacity="1"><g transform="translate(146.942077, 300.855247)"><g><path d="M 5.21875 0.203125 C 3.707031 0.203125 2.582031 -0.226562 1.84375 -1.09375 C 1.101562 -1.957031 0.734375 -3.300781 0.734375 -5.125 C 0.734375 -6.945312 1.097656 -8.289062 1.828125 -9.15625 C 2.566406 -10.019531 3.695312 -10.453125 5.21875 -10.453125 C 5.78125 -10.453125 6.296875 -10.394531 6.765625 -10.28125 C 7.242188 -10.175781 7.59375 -10.070312 7.8125 -9.96875 L 7.90625 -8.5625 C 7.664062 -8.675781 7.296875 -8.796875 6.796875 -8.921875 C 6.296875 -9.054688 5.769531 -9.125 5.21875 -9.125 C 4.207031 -9.125 3.460938 -8.816406 2.984375 -8.203125 C 2.503906 -7.585938 2.265625 -6.5625 2.265625 -5.125 C 2.265625 -3.6875 2.503906 -2.660156 2.984375 -2.046875 C 3.460938 -1.429688 4.207031 -1.125 5.21875 -1.125 C 5.46875 -1.125 5.71875 -1.144531 5.96875 -1.1875 C 6.21875 -1.226562 6.441406 -1.269531 6.640625 -1.3125 L 6.640625 -5.515625 L 8.15625 -5.515625 L 8.15625 -0.34375 C 8.15625 -0.34375 8.023438 -0.296875 7.765625 -0.203125 C 7.515625 -0.117188 7.164062 -0.03125 6.71875 0.0625 C 6.28125 0.15625 5.78125 0.203125 5.21875 0.203125 Z M 5.21875 0.203125 "/></g></g></g><g fill="#5e2590" fill-opacity="1"><g transform="translate(157.683243, 300.855247)"><g><path d="M 0.484375 1.9375 L 1.0625 -1.84375 L 2.765625 -1.84375 L 1.28125 1.9375 Z M 0.484375 1.9375 "/></g></g></g><g fill="#5e2590" fill-opacity="1"><g transform="translate(163.010208, 300.855247)"><g/></g></g><g fill="#5e2590" fill-opacity="1"><g transform="translate(168.117667, 300.855247)"><g><path d="M 4.296875 0.203125 C 3.554688 0.203125 2.882812 0.144531 2.28125 0.03125 C 1.675781 -0.0703125 1.226562 -0.175781 0.9375 -0.28125 L 0.734375 -1.75 C 0.953125 -1.65625 1.25 -1.5625 1.625 -1.46875 C 2 -1.375 2.40625 -1.289062 2.84375 -1.21875 C 3.289062 -1.15625 3.742188 -1.125 4.203125 -1.125 C 5.046875 -1.125 5.648438 -1.265625 6.015625 -1.546875 C 6.378906 -1.835938 6.5625 -2.226562 6.5625 -2.71875 C 6.5625 -3.164062 6.421875 -3.503906 6.140625 -3.734375 C 5.859375 -3.972656 5.410156 -4.171875 4.796875 -4.328125 L 3 -4.796875 C 2.226562 -4.992188 1.640625 -5.3125 1.234375 -5.75 C 0.828125 -6.1875 0.625 -6.800781 0.625 -7.59375 C 0.625 -8.4375 0.921875 -9.125 1.515625 -9.65625 C 2.117188 -10.1875 3.046875 -10.453125 4.296875 -10.453125 C 4.992188 -10.453125 5.628906 -10.398438 6.203125 -10.296875 C 6.773438 -10.191406 7.191406 -10.097656 7.453125 -10.015625 L 7.53125 -8.625 C 7.226562 -8.726562 6.789062 -8.835938 6.21875 -8.953125 C 5.644531 -9.066406 5.039062 -9.125 4.40625 -9.125 C 3.582031 -9.125 3.003906 -8.984375 2.671875 -8.703125 C 2.335938 -8.429688 2.171875 -8.078125 2.171875 -7.640625 C 2.171875 -7.191406 2.296875 -6.851562 2.546875 -6.625 C 2.804688 -6.394531 3.238281 -6.203125 3.84375 -6.046875 L 5.609375 -5.59375 C 6.410156 -5.382812 7.019531 -5.066406 7.4375 -4.640625 C 7.863281 -4.222656 8.078125 -3.59375 8.078125 -2.75 C 8.078125 -1.875 7.773438 -1.160156 7.171875 -0.609375 C 6.566406 -0.0664062 5.609375 0.203125 4.296875 0.203125 Z M 4.296875 0.203125 "/></g></g></g><g fill="#5e2590" fill-opacity="1"><g transform="translate(178.405208, 300.855247)"><g><path d="M 7.71875 -10.25 L 7.71875 -8.890625 L 4.765625 -8.890625 L 4.765625 0 L 3.234375 0 L 3.234375 -8.890625 L 0.28125 -8.890625 L 0.28125 -10.25 Z M 7.71875 -10.25 "/></g></g></g><g fill="#5e2590" fill-opacity="1"><g transform="translate(188.107435, 300.855247)"><g><path d="M 4.890625 0.203125 C 3.648438 0.203125 2.726562 -0.101562 2.125 -0.71875 C 1.519531 -1.34375 1.21875 -2.304688 1.21875 -3.609375 L 1.21875 -10.25 L 2.703125 -10.25 L 2.703125 -3.609375 C 2.703125 -2.691406 2.890625 -2.050781 3.265625 -1.6875 C 3.640625 -1.320312 4.179688 -1.140625 4.890625 -1.140625 C 5.578125 -1.140625 6.109375 -1.320312 6.484375 -1.6875 C 6.859375 -2.050781 7.046875 -2.691406 7.046875 -3.609375 L 7.046875 -10.25 L 8.546875 -10.25 L 8.546875 -3.609375 C 8.546875 -2.304688 8.242188 -1.34375 7.640625 -0.71875 C 7.035156 -0.101562 6.117188 0.203125 4.890625 0.203125 Z M 4.890625 0.203125 "/></g></g></g><g fill="#5e2590" fill-opacity="1"><g transform="translate(199.58025, 300.855247)"><g><path d="M 1.3125 0 L 1.3125 -10.25 L 4.890625 -10.25 C 5.796875 -10.25 6.546875 -10.078125 7.140625 -9.734375 C 7.734375 -9.390625 8.175781 -8.84375 8.46875 -8.09375 C 8.769531 -7.351562 8.921875 -6.363281 8.921875 -5.125 C 8.921875 -3.894531 8.769531 -2.90625 8.46875 -2.15625 C 8.175781 -1.40625 7.734375 -0.859375 7.140625 -0.515625 C 6.546875 -0.171875 5.796875 0 4.890625 0 Z M 2.828125 -1.34375 L 4.890625 -1.34375 C 5.441406 -1.34375 5.90625 -1.453125 6.28125 -1.671875 C 6.65625 -1.890625 6.929688 -2.269531 7.109375 -2.8125 C 7.296875 -3.363281 7.390625 -4.132812 7.390625 -5.125 C 7.390625 -6.113281 7.296875 -6.878906 7.109375 -7.421875 C 6.929688 -7.972656 6.65625 -8.359375 6.28125 -8.578125 C 5.90625 -8.796875 5.441406 -8.90625 4.890625 -8.90625 L 2.828125 -8.90625 Z M 2.828125 -1.34375 "/></g></g></g><g fill="#5e2590" fill-opacity="1"><g transform="translate(210.965269, 300.855247)"><g><path d="M 8.71875 -10.25 L 5.234375 -3.9375 L 5.234375 0 L 3.703125 0 L 3.703125 -3.9375 L 0.1875 -10.25 L 1.859375 -10.25 L 4.5 -5.5 L 7.09375 -10.25 Z M 8.71875 -10.25 "/></g></g></g><g fill="#5e2590" fill-opacity="1"><g transform="translate(221.604007, 300.855247)"><g/></g></g><g fill="#5e2590" fill-opacity="1"><g transform="translate(226.711466, 300.855247)"><g><path d="M 1.3125 0 L 1.3125 -10.25 L 5.234375 -10.25 C 6.367188 -10.25 7.210938 -10.019531 7.765625 -9.5625 C 8.316406 -9.101562 8.59375 -8.414062 8.59375 -7.5 C 8.59375 -6.96875 8.488281 -6.507812 8.28125 -6.125 C 8.082031 -5.75 7.757812 -5.457031 7.3125 -5.25 C 7.84375 -5.0625 8.226562 -4.757812 8.46875 -4.34375 C 8.71875 -3.9375 8.847656 -3.441406 8.859375 -2.859375 C 8.878906 -0.953125 7.726562 0 5.40625 0 Z M 2.828125 -5.796875 L 5.28125 -5.796875 C 5.894531 -5.796875 6.347656 -5.925781 6.640625 -6.1875 C 6.929688 -6.445312 7.078125 -6.835938 7.078125 -7.359375 C 7.078125 -7.921875 6.921875 -8.328125 6.609375 -8.578125 C 6.304688 -8.828125 5.847656 -8.953125 5.234375 -8.953125 L 2.828125 -8.953125 Z M 2.828125 -1.296875 L 5.40625 -1.296875 C 6.0625 -1.296875 6.546875 -1.425781 6.859375 -1.6875 C 7.179688 -1.945312 7.34375 -2.363281 7.34375 -2.9375 C 7.332031 -4 6.6875 -4.53125 5.40625 -4.53125 L 2.828125 -4.53125 Z M 2.828125 -1.296875 "/></g></g></g><g fill="#5e2590" fill-opacity="1"><g transform="translate(238.037946, 300.855247)"><g><path d="M 1.3125 0 L 1.3125 -10.25 L 7.9375 -10.25 L 8.015625 -8.90625 L 2.828125 -8.90625 L 2.828125 -5.84375 L 7.46875 -5.84375 L 7.46875 -4.5 L 2.828125 -4.5 L 2.828125 -1.34375 L 8.140625 -1.34375 L 7.921875 0 Z M 1.3125 0 "/></g></g></g><g fill="#5e2590" fill-opacity="1"><g transform="translate(248.515718, 300.855247)"><g><path d="M 7.71875 -10.25 L 7.71875 -8.890625 L 4.765625 -8.890625 L 4.765625 0 L 3.234375 0 L 3.234375 -8.890625 L 0.28125 -8.890625 L 0.28125 -10.25 Z M 7.71875 -10.25 "/></g></g></g><g fill="#5e2590" fill-opacity="1"><g transform="translate(258.217944, 300.855247)"><g><path d="M 7.71875 -10.25 L 7.71875 -8.890625 L 4.765625 -8.890625 L 4.765625 0 L 3.234375 0 L 3.234375 -8.890625 L 0.28125 -8.890625 L 0.28125 -10.25 Z M 7.71875 -10.25 "/></g></g></g><g fill="#5e2590" fill-opacity="1"><g transform="translate(267.920171, 300.855247)"><g><path d="M 1.3125 0 L 1.3125 -10.25 L 7.9375 -10.25 L 8.015625 -8.90625 L 2.828125 -8.90625 L 2.828125 -5.84375 L 7.46875 -5.84375 L 7.46875 -4.5 L 2.828125 -4.5 L 2.828125 -1.34375 L 8.140625 -1.34375 L 7.921875 0 Z M 1.3125 0 "/></g></g></g><g fill="#5e2590" fill-opacity="1"><g transform="translate(278.397942, 300.855247)"><g><path d="M 9.140625 0 L 7.4375 0 L 5 -4.046875 L 2.828125 -4.046875 L 2.828125 0 L 1.3125 0 L 1.3125 -10.25 L 5.1875 -10.25 C 6.394531 -10.25 7.289062 -9.976562 7.875 -9.4375 C 8.46875 -8.90625 8.765625 -8.128906 8.765625 -7.109375 C 8.765625 -6.335938 8.582031 -5.707031 8.21875 -5.21875 C 7.851562 -4.726562 7.300781 -4.394531 6.5625 -4.21875 Z M 2.828125 -8.953125 L 2.828125 -5.328125 L 5.1875 -5.328125 C 6.550781 -5.328125 7.234375 -5.925781 7.234375 -7.125 C 7.234375 -8.34375 6.550781 -8.953125 5.1875 -8.953125 Z M 2.828125 -8.953125 "/></g></g></g><g fill="#5e2590" fill-opacity="1"><g transform="translate(289.710433, 300.855247)"><g/></g></g><g fill="#5e2590" fill-opacity="1"><g transform="translate(149.119033, 222.049658)"><g><path d="M 5.078125 0.234375 C 3.566406 0.234375 2.4375 -0.203125 1.6875 -1.078125 C 0.945312 -1.960938 0.578125 -3.3125 0.578125 -5.125 C 0.578125 -6.925781 0.945312 -8.265625 1.6875 -9.140625 C 2.4375 -10.023438 3.566406 -10.46875 5.078125 -10.46875 C 5.585938 -10.46875 6.066406 -10.410156 6.515625 -10.296875 C 6.972656 -10.179688 7.3125 -10.0625 7.53125 -9.9375 L 7.65625 -7.75 C 7.445312 -7.863281 7.132812 -7.984375 6.71875 -8.109375 C 6.300781 -8.242188 5.863281 -8.3125 5.40625 -8.3125 C 4.601562 -8.3125 4.015625 -8.066406 3.640625 -7.578125 C 3.273438 -7.097656 3.09375 -6.28125 3.09375 -5.125 C 3.09375 -3.957031 3.273438 -3.132812 3.640625 -2.65625 C 4.015625 -2.175781 4.601562 -1.9375 5.40625 -1.9375 C 5.90625 -1.9375 6.378906 -2.003906 6.828125 -2.140625 C 7.273438 -2.273438 7.625 -2.40625 7.875 -2.53125 L 7.53125 -0.265625 C 7.3125 -0.160156 6.972656 -0.0507812 6.515625 0.0625 C 6.066406 0.175781 5.585938 0.234375 5.078125 0.234375 Z M 5.078125 0.234375 "/></g></g></g><g fill="#5e2590" fill-opacity="1"><g transform="translate(159.124018, 222.049658)"><g><path d="M 4.90625 0.234375 C 3.945312 0.234375 3.144531 0.0546875 2.5 -0.296875 C 1.863281 -0.648438 1.382812 -1.21875 1.0625 -2 C 0.75 -2.789062 0.59375 -3.832031 0.59375 -5.125 C 0.59375 -6.40625 0.75 -7.4375 1.0625 -8.21875 C 1.382812 -9.007812 1.863281 -9.582031 2.5 -9.9375 C 3.144531 -10.289062 3.945312 -10.46875 4.90625 -10.46875 C 5.882812 -10.46875 6.691406 -10.289062 7.328125 -9.9375 C 7.960938 -9.582031 8.4375 -9.007812 8.75 -8.21875 C 9.070312 -7.4375 9.234375 -6.40625 9.234375 -5.125 C 9.234375 -3.832031 9.070312 -2.789062 8.75 -2 C 8.4375 -1.21875 7.960938 -0.648438 7.328125 -0.296875 C 6.691406 0.0546875 5.882812 0.234375 4.90625 0.234375 Z M 4.90625 -1.90625 C 5.3125 -1.90625 5.644531 -1.992188 5.90625 -2.171875 C 6.164062 -2.359375 6.363281 -2.679688 6.5 -3.140625 C 6.644531 -3.609375 6.71875 -4.269531 6.71875 -5.125 C 6.71875 -5.976562 6.644531 -6.632812 6.5 -7.09375 C 6.363281 -7.5625 6.164062 -7.882812 5.90625 -8.0625 C 5.644531 -8.25 5.3125 -8.34375 4.90625 -8.34375 C 4.507812 -8.34375 4.179688 -8.25 3.921875 -8.0625 C 3.660156 -7.882812 3.460938 -7.5625 3.328125 -7.09375 C 3.191406 -6.632812 3.125 -5.976562 3.125 -5.125 C 3.125 -4.269531 3.191406 -3.609375 3.328125 -3.140625 C 3.460938 -2.679688 3.660156 -2.359375 3.921875 -2.171875 C 4.179688 -1.992188 4.507812 -1.90625 4.90625 -1.90625 Z M 4.90625 -1.90625 "/></g></g></g><g fill="#5e2590" fill-opacity="1"><g transform="translate(170.66464, 222.049658)"><g><path d="M 1.03125 0 L 1.03125 -10.234375 L 3.53125 -10.234375 L 3.53125 -2.171875 L 8.109375 -2.171875 L 7.75 0 Z M 1.03125 0 "/></g></g></g><g fill="#5e2590" fill-opacity="1"><g transform="translate(180.669625, 222.049658)"><g><path d="M 1.03125 0 L 1.03125 -10.234375 L 3.53125 -10.234375 L 3.53125 -2.171875 L 8.109375 -2.171875 L 7.75 0 Z M 1.03125 0 "/></g></g></g><g fill="#5e2590" fill-opacity="1"><g transform="translate(190.67461, 222.049658)"><g><path d="M 1.03125 0 L 1.03125 -10.234375 L 8.09375 -10.234375 L 8.203125 -8.171875 L 3.53125 -8.171875 L 3.53125 -6.203125 L 7.640625 -6.203125 L 7.640625 -4.125 L 3.53125 -4.125 L 3.53125 -2.0625 L 8.375 -2.0625 L 8.046875 0 Z M 1.03125 0 "/></g></g></g><g fill="#5e2590" fill-opacity="1"><g transform="translate(201.293846, 222.049658)"><g><path d="M 5.265625 0.234375 C 3.679688 0.234375 2.503906 -0.203125 1.734375 -1.078125 C 0.960938 -1.960938 0.578125 -3.3125 0.578125 -5.125 C 0.578125 -6.925781 0.960938 -8.265625 1.734375 -9.140625 C 2.503906 -10.023438 3.679688 -10.46875 5.265625 -10.46875 C 5.859375 -10.46875 6.40625 -10.410156 6.90625 -10.296875 C 7.40625 -10.179688 7.773438 -10.066406 8.015625 -9.953125 L 8.125 -7.765625 C 7.894531 -7.878906 7.535156 -8.003906 7.046875 -8.140625 C 6.554688 -8.273438 6.046875 -8.34375 5.515625 -8.34375 C 4.660156 -8.34375 4.039062 -8.097656 3.65625 -7.609375 C 3.28125 -7.117188 3.09375 -6.289062 3.09375 -5.125 C 3.09375 -3.9375 3.273438 -3.101562 3.640625 -2.625 C 4.003906 -2.144531 4.578125 -1.90625 5.359375 -1.90625 C 5.617188 -1.90625 5.863281 -1.925781 6.09375 -1.96875 L 6.09375 -5.578125 L 8.421875 -5.578125 L 8.421875 -0.34375 C 8.335938 -0.320312 8.144531 -0.257812 7.84375 -0.15625 C 7.550781 -0.0625 7.179688 0.0234375 6.734375 0.109375 C 6.285156 0.191406 5.796875 0.234375 5.265625 0.234375 Z M 5.265625 0.234375 "/></g></g></g><g fill="#5e2590" fill-opacity="1"><g transform="translate(212.161715, 222.049658)"><g><path d="M 1.03125 0 L 1.03125 -10.234375 L 8.09375 -10.234375 L 8.203125 -8.171875 L 3.53125 -8.171875 L 3.53125 -6.203125 L 7.640625 -6.203125 L 7.640625 -4.125 L 3.53125 -4.125 L 3.53125 -2.0625 L 8.375 -2.0625 L 8.046875 0 Z M 1.03125 0 "/></g></g></g><g fill="#5e2590" fill-opacity="1"><g transform="translate(222.783091, 222.049658)"><g/></g></g></svg>
