<svg xmlns="http://www.w3.org/2000/svg" xmlns:xlink="http://www.w3.org/1999/xlink" width="500" zoomAndPan="magnify" viewBox="0 0 375 374.999991" height="500" preserveAspectRatio="xMidYMid meet" version="1.0"><defs><g/><clipPath id="4316074f9c"><path d="M 218 87 L 280.601562 87 L 280.601562 221 L 218 221 Z M 218 87 " clip-rule="nonzero"/></clipPath><clipPath id="25c0a849dc"><path d="M 81.851562 87 L 250 87 L 250 226.582031 L 81.851562 226.582031 Z M 81.851562 87 " clip-rule="nonzero"/></clipPath><clipPath id="bd443dcc8c"><path d="M 148 39.082031 L 214 39.082031 L 214 104 L 148 104 Z M 148 39.082031 " clip-rule="nonzero"/></clipPath><clipPath id="50cda3a391"><path d="M 280.535156 39.082031 L 308.277344 39.082031 L 308.277344 66.082031 L 280.535156 66.082031 Z M 280.535156 39.082031 " clip-rule="nonzero"/></clipPath><clipPath id="2f9cf05cc0"><path d="M 320.230469 251.179688 L 350.980469 251.179688 L 350.980469 281.929688 L 320.230469 281.929688 Z M 320.230469 251.179688 " clip-rule="nonzero"/></clipPath></defs><g clip-path="url(#4316074f9c)"><path fill="#481b6b" d="M 249.472656 220.996094 L 280.601562 211.554688 L 254.585938 101.761719 L 240.628906 87.789062 L 218.871094 177.851562 L 249.472656 220.996094 " fill-opacity="1" fill-rule="nonzero"/></g><g clip-path="url(#25c0a849dc)"><path fill="#5e2590" d="M 155.523438 160.640625 C 138.082031 172.769531 114.90625 181.167969 91.820312 186.148438 L 87.667969 199.871094 C 91.632812 199.054688 95.625 198.140625 99.644531 197.121094 C 136.429688 187.792969 167.445312 171.835938 186.578125 154.226562 L 174.453125 141.800781 C 200.46875 139.15625 225.816406 127.414062 225.816406 127.414062 C 225.816406 127.414062 219.75 156.679688 207.957031 181.53125 L 200.09375 168.078125 C 178.148438 187.101562 144.082031 204.175781 104.003906 214.335938 C 96.53125 216.234375 89.132812 217.816406 81.851562 219.097656 C 81.851562 219.097656 143.355469 224.398438 200.332031 195.035156 C 187.050781 207.753906 169.085938 218.378906 150.214844 226.527344 L 249.472656 220.996094 L 240.628906 87.789062 L 209.476562 87.789062 L 209.476562 103.542969 L 203.421875 103.542969 L 203.421875 87.789062 L 150.632812 87.789062 L 150.632812 103.542969 L 144.574219 103.542969 L 144.574219 87.789062 L 121.585938 87.789062 L 95.460938 174.121094 C 117.257812 171.488281 137.59375 166.8125 155.523438 160.640625 " fill-opacity="1" fill-rule="nonzero"/></g><g clip-path="url(#bd443dcc8c)"><path fill="#481b6b" d="M 154.714844 103.542969 L 154.714844 71.589844 C 154.714844 57 166.53125 45.171875 181.109375 45.171875 C 195.683594 45.171875 207.503906 57 207.503906 71.589844 L 207.503906 103.542969 L 213.5625 103.542969 L 213.5625 71.589844 C 213.5625 53.679688 199.003906 39.105469 181.109375 39.105469 C 163.214844 39.105469 148.65625 53.679688 148.65625 71.589844 L 148.65625 103.542969 L 154.714844 103.542969 " fill-opacity="1" fill-rule="nonzero"/></g><g clip-path="url(#50cda3a391)"><path fill="#000000" d="M 292.390625 51.96875 L 293.871094 51.96875 C 295.601562 51.96875 297 51.390625 297 49.996094 C 297 48.765625 296.09375 47.945312 294.117188 47.945312 C 293.296875 47.945312 292.71875 48.027344 292.390625 48.109375 Z M 292.308594 59.515625 L 289.179688 59.515625 L 289.179688 46.058594 C 290.414062 45.894531 292.144531 45.648438 294.367188 45.648438 C 296.917969 45.648438 298.070312 46.058594 298.976562 46.714844 C 299.800781 47.289062 300.375 48.273438 300.375 49.585938 C 300.375 51.226562 299.140625 52.296875 297.578125 52.789062 L 297.578125 52.953125 C 298.894531 53.363281 299.550781 54.429688 299.964844 56.234375 C 300.375 58.285156 300.703125 59.023438 300.953125 59.515625 L 297.660156 59.515625 C 297.246094 59.023438 297 57.875 296.589844 56.234375 C 296.339844 54.839844 295.519531 54.183594 293.789062 54.183594 L 292.308594 54.183594 Z M 283.992188 52.542969 C 283.992188 58.53125 288.519531 63.292969 294.53125 63.292969 C 300.375 63.375 304.820312 58.53125 304.820312 52.625 C 304.820312 46.632812 300.375 41.789062 294.367188 41.789062 C 288.519531 41.789062 283.992188 46.632812 283.992188 52.542969 Z M 308.277344 52.542969 C 308.277344 60.089844 302.1875 66.082031 294.449219 66.082031 C 286.710938 66.082031 280.535156 60.089844 280.535156 52.542969 C 280.535156 44.992188 286.710938 39.082031 294.53125 39.082031 C 302.1875 39.082031 308.277344 44.992188 308.277344 52.542969 " fill-opacity="1" fill-rule="nonzero"/></g><g clip-path="url(#2f9cf05cc0)"><path fill="#707070" d="M 335.785156 251.179688 C 334.269531 263.992188 333.039062 265.21875 320.230469 266.738281 C 320.253906 266.738281 320.28125 266.742188 320.308594 266.746094 C 333.042969 268.257812 334.273438 269.507812 335.785156 282.292969 C 337.300781 269.480469 338.53125 268.253906 351.34375 266.738281 C 338.53125 265.21875 337.300781 263.992188 335.785156 251.179688 Z M 335.785156 251.179688 " fill-opacity="1" fill-rule="nonzero"/></g><g fill="#000000" fill-opacity="1"><g transform="translate(39.870816, 321.677948)"><g><path d="M 23.09375 0 L 4.828125 0 L 4.828125 -46.609375 L 22.359375 -46.609375 C 25.003906 -46.609375 27.253906 -46.3125 29.109375 -45.71875 C 30.960938 -45.132812 32.460938 -44.289062 33.609375 -43.1875 C 34.660156 -42.175781 35.441406 -40.96875 35.953125 -39.5625 C 36.460938 -38.15625 36.71875 -36.617188 36.71875 -34.953125 C 36.71875 -32.179688 36.015625 -29.796875 34.609375 -27.796875 C 33.203125 -25.796875 31.257812 -24.675781 28.78125 -24.4375 C 32.070312 -24.195312 34.601562 -23.066406 36.375 -21.046875 C 38.144531 -19.023438 39.03125 -16.390625 39.03125 -13.140625 C 39.03125 -11.054688 38.710938 -9.28125 38.078125 -7.8125 C 37.453125 -6.351562 36.632812 -5.113281 35.625 -4.09375 C 34.519531 -3.03125 33.234375 -2.191406 31.765625 -1.578125 C 30.296875 -0.972656 28.804688 -0.554688 27.296875 -0.328125 C 25.796875 -0.109375 24.394531 0 23.09375 0 Z M 10.453125 -41.546875 L 10.453125 -26.390625 L 22.359375 -26.390625 C 25.128906 -26.390625 27.265625 -27.0625 28.765625 -28.40625 C 30.273438 -29.75 31.03125 -31.625 31.03125 -34.03125 C 31.03125 -35.207031 30.859375 -36.210938 30.515625 -37.046875 C 30.171875 -37.890625 29.691406 -38.59375 29.078125 -39.15625 C 28.179688 -40.007812 27.050781 -40.617188 25.6875 -40.984375 C 24.320312 -41.359375 22.804688 -41.546875 21.140625 -41.546875 Z M 10.453125 -21.390625 L 10.453125 -5.078125 L 22.484375 -5.078125 C 23.097656 -5.078125 23.921875 -5.101562 24.953125 -5.15625 C 25.992188 -5.21875 27.070312 -5.421875 28.1875 -5.765625 C 29.3125 -6.117188 30.300781 -6.703125 31.15625 -7.515625 C 31.851562 -8.128906 32.40625 -8.921875 32.8125 -9.890625 C 33.21875 -10.867188 33.421875 -12.070312 33.421875 -13.5 C 33.421875 -15.457031 33.039062 -16.972656 32.28125 -18.046875 C 31.53125 -19.128906 30.601562 -19.90625 29.5 -20.375 C 28.40625 -20.84375 27.328125 -21.128906 26.265625 -21.234375 C 25.210938 -21.335938 24.359375 -21.390625 23.703125 -21.390625 Z M 10.453125 -21.390625 "/></g></g></g><g fill="#000000" fill-opacity="1"><g transform="translate(88.866315, 321.677948)"><g><path d="M 6.53125 0 L 0.859375 0 L 18.015625 -46.609375 L 24.375 -46.609375 L 41.546875 0 L 35.859375 0 L 31.765625 -11.421875 L 10.625 -11.421875 Z M 21.203125 -40.875 L 12.53125 -16.4375 L 29.875 -16.4375 Z M 21.203125 -40.875 "/></g></g></g><g fill="#000000" fill-opacity="1"><g transform="translate(138.106171, 321.677948)"><g><path d="M 6.53125 0 L 0.859375 0 L 18.015625 -46.609375 L 24.375 -46.609375 L 41.546875 0 L 35.859375 0 L 31.765625 -11.421875 L 10.625 -11.421875 Z M 21.203125 -40.875 L 12.53125 -16.4375 L 29.875 -16.4375 Z M 21.203125 -40.875 "/></g></g></g><g fill="#000000" fill-opacity="1"><g transform="translate(187.346023, 321.677948)"><g><path d="M 36.71875 0 L 1.765625 0 L 1.765625 -4.09375 L 29.8125 -41.546875 L 3.234375 -41.546875 L 3.234375 -46.609375 L 36.78125 -46.609375 L 36.78125 -42.40625 L 8.984375 -5.078125 L 36.71875 -5.078125 Z M 36.71875 0 "/></g></g></g><g fill="#000000" fill-opacity="1"><g transform="translate(232.92048, 321.677948)"><g><path d="M 6.53125 0 L 0.859375 0 L 18.015625 -46.609375 L 24.375 -46.609375 L 41.546875 0 L 35.859375 0 L 31.765625 -11.421875 L 10.625 -11.421875 Z M 21.203125 -40.875 L 12.53125 -16.4375 L 29.875 -16.4375 Z M 21.203125 -40.875 "/></g></g></g><g fill="#000000" fill-opacity="1"><g transform="translate(282.160341, 321.677948)"><g><path d="M 28.59375 -20.703125 L 37.578125 0 L 31.40625 0 L 23.15625 -19.671875 L 10.453125 -19.671875 L 10.453125 0 L 4.828125 0 L 4.828125 -46.609375 L 22.171875 -46.609375 C 26.648438 -46.609375 30.234375 -45.507812 32.921875 -43.3125 C 35.617188 -41.113281 36.96875 -37.773438 36.96875 -33.296875 C 36.96875 -30.160156 36.234375 -27.507812 34.765625 -25.34375 C 33.296875 -23.1875 31.238281 -21.640625 28.59375 -20.703125 Z M 10.453125 -24.6875 L 21.4375 -24.6875 C 24.65625 -24.6875 27.117188 -25.40625 28.828125 -26.84375 C 30.546875 -28.289062 31.40625 -30.378906 31.40625 -33.109375 C 31.40625 -35.796875 30.523438 -37.875 28.765625 -39.34375 C 27.015625 -40.8125 24.570312 -41.546875 21.4375 -41.546875 L 10.453125 -41.546875 Z M 10.453125 -24.6875 "/></g></g></g><g fill="#5e2590" fill-opacity="1"><g transform="translate(116.103395, 259.29081)"><g><path d="M 8.609375 0.390625 C 6.046875 0.390625 4.128906 -0.351562 2.859375 -1.84375 C 1.597656 -3.34375 0.96875 -5.625 0.96875 -8.6875 C 0.96875 -11.75 1.597656 -14.023438 2.859375 -15.515625 C 4.128906 -17.015625 6.046875 -17.765625 8.609375 -17.765625 C 9.484375 -17.765625 10.300781 -17.664062 11.0625 -17.46875 C 11.820312 -17.269531 12.394531 -17.070312 12.78125 -16.875 L 13 -13.15625 C 12.632812 -13.351562 12.097656 -13.554688 11.390625 -13.765625 C 10.691406 -13.984375 9.957031 -14.09375 9.1875 -14.09375 C 7.8125 -14.09375 6.8125 -13.679688 6.1875 -12.859375 C 5.570312 -12.046875 5.265625 -10.65625 5.265625 -8.6875 C 5.265625 -6.71875 5.570312 -5.320312 6.1875 -4.5 C 6.8125 -3.6875 7.8125 -3.28125 9.1875 -3.28125 C 10.03125 -3.28125 10.832031 -3.394531 11.59375 -3.625 C 12.351562 -3.851562 12.9375 -4.078125 13.34375 -4.296875 L 12.78125 -0.453125 C 12.394531 -0.265625 11.820312 -0.078125 11.0625 0.109375 C 10.300781 0.296875 9.484375 0.390625 8.609375 0.390625 Z M 8.609375 0.390625 "/></g></g></g><g fill="#5e2590" fill-opacity="1"><g transform="translate(133.070231, 259.29081)"><g><path d="M 8.34375 0.390625 C 6.695312 0.390625 5.332031 0.0859375 4.25 -0.515625 C 3.164062 -1.117188 2.351562 -2.082031 1.8125 -3.40625 C 1.28125 -4.738281 1.015625 -6.5 1.015625 -8.6875 C 1.015625 -10.863281 1.28125 -12.617188 1.8125 -13.953125 C 2.351562 -15.285156 3.164062 -16.253906 4.25 -16.859375 C 5.332031 -17.460938 6.695312 -17.765625 8.34375 -17.765625 C 9.988281 -17.765625 11.347656 -17.460938 12.421875 -16.859375 C 13.503906 -16.253906 14.3125 -15.285156 14.84375 -13.953125 C 15.382812 -12.617188 15.65625 -10.863281 15.65625 -8.6875 C 15.65625 -6.5 15.382812 -4.738281 14.84375 -3.40625 C 14.3125 -2.082031 13.503906 -1.117188 12.421875 -0.515625 C 11.347656 0.0859375 9.988281 0.390625 8.34375 0.390625 Z M 8.34375 -3.21875 C 9.019531 -3.21875 9.578125 -3.375 10.015625 -3.6875 C 10.460938 -4.007812 10.800781 -4.5625 11.03125 -5.34375 C 11.269531 -6.132812 11.390625 -7.25 11.390625 -8.6875 C 11.390625 -10.144531 11.269531 -11.265625 11.03125 -12.046875 C 10.800781 -12.828125 10.460938 -13.367188 10.015625 -13.671875 C 9.578125 -13.984375 9.019531 -14.140625 8.34375 -14.140625 C 7.65625 -14.140625 7.085938 -13.984375 6.640625 -13.671875 C 6.203125 -13.367188 5.867188 -12.828125 5.640625 -12.046875 C 5.421875 -11.265625 5.3125 -10.144531 5.3125 -8.6875 C 5.3125 -7.25 5.421875 -6.132812 5.640625 -5.34375 C 5.867188 -4.5625 6.203125 -4.007812 6.640625 -3.6875 C 7.085938 -3.375 7.65625 -3.21875 8.34375 -3.21875 Z M 8.34375 -3.21875 "/></g></g></g><g fill="#5e2590" fill-opacity="1"><g transform="translate(152.641258, 259.29081)"><g><path d="M 1.765625 0 L 1.765625 -17.375 L 5.984375 -17.375 L 5.984375 -3.703125 L 13.75 -3.703125 L 13.15625 0 Z M 1.765625 0 "/></g></g></g><g fill="#5e2590" fill-opacity="1"><g transform="translate(169.608094, 259.29081)"><g><path d="M 1.765625 0 L 1.765625 -17.375 L 5.984375 -17.375 L 5.984375 -3.703125 L 13.75 -3.703125 L 13.15625 0 Z M 1.765625 0 "/></g></g></g><g fill="#5e2590" fill-opacity="1"><g transform="translate(186.574929, 259.29081)"><g><path d="M 1.765625 0 L 1.765625 -17.375 L 13.71875 -17.375 L 13.921875 -13.875 L 5.984375 -13.875 L 5.984375 -10.515625 L 12.953125 -10.515625 L 12.953125 -7 L 5.984375 -7 L 5.984375 -3.5 L 14.21875 -3.5 L 13.640625 0 Z M 1.765625 0 "/></g></g></g><g fill="#5e2590" fill-opacity="1"><g transform="translate(204.583434, 259.29081)"><g><path d="M 8.9375 0.390625 C 6.25 0.390625 4.25 -0.351562 2.9375 -1.84375 C 1.625 -3.34375 0.96875 -5.625 0.96875 -8.6875 C 0.96875 -11.75 1.625 -14.023438 2.9375 -15.515625 C 4.25 -17.015625 6.25 -17.765625 8.9375 -17.765625 C 9.945312 -17.765625 10.875 -17.664062 11.71875 -17.46875 C 12.5625 -17.269531 13.1875 -17.078125 13.59375 -16.890625 L 13.796875 -13.171875 C 13.398438 -13.367188 12.785156 -13.578125 11.953125 -13.796875 C 11.128906 -14.023438 10.265625 -14.140625 9.359375 -14.140625 C 7.921875 -14.140625 6.878906 -13.722656 6.234375 -12.890625 C 5.585938 -12.066406 5.265625 -10.664062 5.265625 -8.6875 C 5.265625 -6.6875 5.566406 -5.273438 6.171875 -4.453125 C 6.785156 -3.628906 7.753906 -3.21875 9.078125 -3.21875 C 9.523438 -3.21875 9.945312 -3.257812 10.34375 -3.34375 L 10.34375 -9.453125 L 14.296875 -9.453125 L 14.296875 -0.59375 C 14.140625 -0.539062 13.8125 -0.429688 13.3125 -0.265625 C 12.8125 -0.109375 12.175781 0.0351562 11.40625 0.171875 C 10.644531 0.316406 9.820312 0.390625 8.9375 0.390625 Z M 8.9375 0.390625 "/></g></g></g><g fill="#5e2590" fill-opacity="1"><g transform="translate(223.013582, 259.29081)"><g><path d="M 1.765625 0 L 1.765625 -17.375 L 13.71875 -17.375 L 13.921875 -13.875 L 5.984375 -13.875 L 5.984375 -10.515625 L 12.953125 -10.515625 L 12.953125 -7 L 5.984375 -7 L 5.984375 -3.5 L 14.21875 -3.5 L 13.640625 0 Z M 1.765625 0 "/></g></g></g><g fill="#5e2590" fill-opacity="1"><g transform="translate(241.025716, 259.29081)"><g/></g></g></svg>
